<?xml version="1.0" encoding="utf-8"?>
<!-- Generator: Adobe Illustrator 21.1.0, SVG Export Plug-In . SVG Version: 6.00 Build 0)  -->
<svg version="1.1" id="圖層_1" xmlns="http://www.w3.org/2000/svg" xmlns:xlink="http://www.w3.org/1999/xlink" x="0px" y="0px"
	 viewBox="0 0 294.8 294.8" style="enable-background:new 0 0 294.8 294.8;" xml:space="preserve">
<style type="text/css">
	.st0{fill:#FFFFFF;}
	.st1{fill:#3B5999;}
	.st2{fill:#9CAECE;}
</style>
<g>
	<rect class="st0" width="294.8" height="294.8"/>
	<polygon class="st1" points="10.5,156 10.5,264.8 49.3,207.1 	"/>
	<polygon class="st1" points="193.3,284.2 276,284.2 234.9,225.4 	"/>
	<polygon class="st2" points="10.5,51.2 10.5,133.6 51.9,188.1 	"/>
	<polygon class="st1" points="101.8,284.2 165.2,284.2 187,163.7 	"/>
	<polygon class="st2" points="214.6,10.5 166.9,10.5 201,85.7 	"/>
	<polygon class="st1" points="284.3,144.2 284.3,35.9 261,85.4 	"/>
	<polygon class="st2" points="86,11.9 85.1,10.5 29.8,10.5 80.2,60.8 	"/>
	<polygon class="st2" points="281.3,10.5 231.3,10.5 254.1,68.1 	"/>
	<polygon class="st2" points="152,10.5 101.6,10.5 246.2,217.9 	"/>
	<polygon class="st1" points="13.8,284.2 81.9,284.2 133.7,105.7 	"/>
	<polygon class="st1" points="103.5,258.4 181.2,148.4 148.9,102 	"/>
	<polygon class="st1" points="224.7,30.6 211.7,102.8 278.2,165.5 	"/>
	<polygon class="st1" points="97.7,28.5 82.2,158.2 134.1,80.8 	"/>
	<polygon class="st1" points="179.7,280 226.7,213.6 198.9,173.7 	"/>
	<polygon class="st1" points="64.8,184 65.6,182.8 78.1,77.9 13,12.8 	"/>
	<polygon class="st1" points="284.3,269 284.3,189.8 221.4,130.5 	"/>
</g>
</svg>
